<svg xmlns="http://www.w3.org/2000/svg" xmlns:xlink="http://www.w3.org/1999/xlink" width="1080" zoomAndPan="magnify" viewBox="0 0 810 809.999993" height="1080" preserveAspectRatio="xMidYMid meet" version="1.0"><defs><g/></defs><g fill="#ffffff" fill-opacity="1"><g transform="translate(173.226556, 470.074597)"><g><path d="M 65.90625 0 L 37.015625 -94.140625 L 36.28125 -94.140625 C 37.3125 -74.984375 37.828125 -62.207031 37.828125 -55.8125 L 37.828125 0 L 15.09375 0 L 15.09375 -119.984375 L 49.734375 -119.984375 L 78.125 -28.234375 L 78.625 -28.234375 L 108.734375 -119.984375 L 143.375 -119.984375 L 143.375 0 L 119.65625 0 L 119.65625 -56.796875 C 119.65625 -59.472656 119.695312 -62.5625 119.78125 -66.0625 C 119.863281 -69.5625 120.234375 -78.863281 120.890625 -93.96875 L 120.15625 -93.96875 L 89.203125 0 Z M 65.90625 0 "/></g></g></g><g fill="#ffffff" fill-opacity="1"><g transform="translate(331.706243, 470.074597)"><g><path d="M 71.40625 0 L 66.5625 -12.46875 L 65.90625 -12.46875 C 61.6875 -7.164062 57.347656 -3.488281 52.890625 -1.4375 C 48.429688 0.613281 42.617188 1.640625 35.453125 1.640625 C 26.640625 1.640625 19.703125 -0.875 14.640625 -5.90625 C 9.585938 -10.9375 7.0625 -18.101562 7.0625 -27.40625 C 7.0625 -37.144531 10.46875 -44.328125 17.28125 -48.953125 C 24.09375 -53.578125 34.363281 -56.132812 48.09375 -56.625 L 64.015625 -57.125 L 64.015625 -61.140625 C 64.015625 -70.441406 59.253906 -75.09375 49.734375 -75.09375 C 42.398438 -75.09375 33.78125 -72.878906 23.875 -68.453125 L 15.59375 -85.359375 C 26.15625 -90.878906 37.863281 -93.640625 50.71875 -93.640625 C 63.03125 -93.640625 72.46875 -90.957031 79.03125 -85.59375 C 85.59375 -80.238281 88.875 -72.085938 88.875 -61.140625 L 88.875 0 Z M 64.015625 -42.515625 L 54.328125 -42.1875 C 47.054688 -41.96875 41.640625 -40.65625 38.078125 -38.25 C 34.523438 -35.84375 32.75 -32.175781 32.75 -27.25 C 32.75 -20.1875 36.796875 -16.65625 44.890625 -16.65625 C 50.691406 -16.65625 55.328125 -18.320312 58.796875 -21.65625 C 62.273438 -25 64.015625 -29.4375 64.015625 -34.96875 Z M 64.015625 -42.515625 "/></g></g></g><g fill="#ffffff" fill-opacity="1"><g transform="translate(433.228436, 470.074597)"><g><path d="M 37.171875 -49.890625 L 48.09375 -63.84375 L 73.78125 -91.75 L 102.015625 -91.75 L 65.578125 -51.953125 L 104.234375 0 L 75.34375 0 L 48.90625 -37.171875 L 38.15625 -28.5625 L 38.15625 0 L 13.125 0 L 13.125 -127.703125 L 38.15625 -127.703125 L 38.15625 -70.75 L 36.84375 -49.890625 Z M 37.171875 -49.890625 "/></g></g></g><g fill="#ffffff" fill-opacity="1"><g transform="translate(537.458976, 470.074597)"><g><path d="M 51.125 -75.671875 C 45.820312 -75.671875 41.664062 -73.988281 38.65625 -70.625 C 35.644531 -67.257812 33.921875 -62.484375 33.484375 -56.296875 L 68.609375 -56.296875 C 68.503906 -62.484375 66.890625 -67.257812 63.765625 -70.625 C 60.648438 -73.988281 56.4375 -75.671875 51.125 -75.671875 Z M 54.65625 1.640625 C 39.882812 1.640625 28.335938 -2.429688 20.015625 -10.578125 C 11.703125 -18.734375 7.546875 -30.28125 7.546875 -45.21875 C 7.546875 -60.59375 11.390625 -72.476562 19.078125 -80.875 C 26.765625 -89.28125 37.394531 -93.484375 50.96875 -93.484375 C 63.9375 -93.484375 74.03125 -89.785156 81.25 -82.390625 C 88.46875 -75.003906 92.078125 -64.800781 92.078125 -51.78125 L 92.078125 -39.640625 L 32.90625 -39.640625 C 33.175781 -32.523438 35.28125 -26.96875 39.21875 -22.96875 C 43.164062 -18.976562 48.695312 -16.984375 55.8125 -16.984375 C 61.332031 -16.984375 66.554688 -17.554688 71.484375 -18.703125 C 76.410156 -19.859375 81.550781 -21.691406 86.90625 -24.203125 L 86.90625 -4.84375 C 82.53125 -2.65625 77.851562 -1.03125 72.875 0.03125 C 67.894531 1.101562 61.820312 1.640625 54.65625 1.640625 Z M 54.65625 1.640625 "/></g></g></g></svg>