<svg xmlns="http://www.w3.org/2000/svg" xmlns:xlink="http://www.w3.org/1999/xlink" width="1080" zoomAndPan="magnify" viewBox="0 0 810 809.999993" height="1080" preserveAspectRatio="xMidYMid meet" version="1.0"><defs><g/></defs><g fill="#ffffff" fill-opacity="1"><g transform="translate(70.816406, 442.873884)"><g><path d="M 51.171875 0 L 29.96875 0 L 29.96875 -82.359375 L 2.796875 -82.359375 L 2.796875 -100.015625 L 78.328125 -100.015625 L 78.328125 -82.359375 L 51.171875 -82.359375 Z M 51.171875 0 "/></g></g></g><g fill="#ffffff" fill-opacity="1"><g transform="translate(151.940387, 442.873884)"><g><path d="M 42.609375 -63.0625 C 38.191406 -63.0625 34.726562 -61.660156 32.21875 -58.859375 C 29.707031 -56.054688 28.269531 -52.078125 27.90625 -46.921875 L 57.1875 -46.921875 C 57.09375 -52.078125 55.742188 -56.054688 53.140625 -58.859375 C 50.546875 -61.660156 47.035156 -63.0625 42.609375 -63.0625 Z M 45.5625 1.375 C 33.25 1.375 23.625 -2.019531 16.6875 -8.8125 C 9.757812 -15.613281 6.296875 -25.238281 6.296875 -37.6875 C 6.296875 -50.5 9.5 -60.40625 15.90625 -67.40625 C 22.3125 -74.40625 31.171875 -77.90625 42.484375 -77.90625 C 53.285156 -77.90625 61.695312 -74.828125 67.71875 -68.671875 C 73.738281 -62.515625 76.75 -54.007812 76.75 -43.15625 L 76.75 -33.046875 L 27.4375 -33.046875 C 27.65625 -27.109375 29.40625 -22.472656 32.6875 -19.140625 C 35.976562 -15.816406 40.585938 -14.15625 46.515625 -14.15625 C 51.117188 -14.15625 55.472656 -14.632812 59.578125 -15.59375 C 63.679688 -16.550781 67.96875 -18.078125 72.4375 -20.171875 L 72.4375 -4.03125 C 68.789062 -2.207031 64.890625 -0.851562 60.734375 0.03125 C 56.585938 0.925781 51.53125 1.375 45.5625 1.375 Z M 45.5625 1.375 "/></g></g></g><g fill="#ffffff" fill-opacity="1"><g transform="translate(234.706, 442.873884)"><g><path d="M 81.53125 0 L 60.671875 0 L 60.671875 -44.671875 C 60.671875 -50.191406 59.691406 -54.328125 57.734375 -57.078125 C 55.773438 -59.835938 52.648438 -61.21875 48.359375 -61.21875 C 42.523438 -61.21875 38.304688 -59.269531 35.703125 -55.375 C 33.109375 -51.476562 31.8125 -45.015625 31.8125 -35.984375 L 31.8125 0 L 10.9375 0 L 10.9375 -76.484375 L 26.890625 -76.484375 L 29.6875 -66.6875 L 30.84375 -66.6875 C 33.175781 -70.382812 36.378906 -73.175781 40.453125 -75.0625 C 44.535156 -76.957031 49.175781 -77.90625 54.375 -77.90625 C 63.269531 -77.90625 70.019531 -75.5 74.625 -70.6875 C 79.226562 -65.882812 81.53125 -58.945312 81.53125 -49.875 Z M 81.53125 0 "/></g></g></g><g fill="#ffffff" fill-opacity="1"><g transform="translate(326.774195, 442.873884)"><g><path d="M 64.296875 -22.703125 C 64.296875 -14.859375 61.570312 -8.882812 56.125 -4.78125 C 50.675781 -0.675781 42.523438 1.375 31.671875 1.375 C 26.109375 1.375 21.363281 0.992188 17.4375 0.234375 C 13.519531 -0.515625 9.851562 -1.617188 6.4375 -3.078125 L 6.4375 -20.3125 C 10.3125 -18.488281 14.675781 -16.960938 19.53125 -15.734375 C 24.382812 -14.503906 28.660156 -13.890625 32.359375 -13.890625 C 39.921875 -13.890625 43.703125 -16.078125 43.703125 -20.453125 C 43.703125 -22.097656 43.203125 -23.429688 42.203125 -24.453125 C 41.203125 -25.484375 39.46875 -26.644531 37 -27.9375 C 34.539062 -29.238281 31.257812 -30.757812 27.15625 -32.5 C 21.269531 -34.957031 16.945312 -37.234375 14.1875 -39.328125 C 11.4375 -41.429688 9.429688 -43.835938 8.171875 -46.546875 C 6.921875 -49.265625 6.296875 -52.609375 6.296875 -56.578125 C 6.296875 -63.367188 8.925781 -68.617188 14.1875 -72.328125 C 19.457031 -76.046875 26.925781 -77.90625 36.59375 -77.90625 C 45.8125 -77.90625 54.773438 -75.898438 63.484375 -71.890625 L 57.1875 -56.84375 C 53.351562 -58.488281 49.769531 -59.832031 46.4375 -60.875 C 43.113281 -61.925781 39.71875 -62.453125 36.25 -62.453125 C 30.09375 -62.453125 27.015625 -60.785156 27.015625 -57.453125 C 27.015625 -55.585938 28.003906 -53.96875 29.984375 -52.59375 C 31.972656 -51.226562 36.320312 -49.203125 43.03125 -46.515625 C 49 -44.097656 53.375 -41.835938 56.15625 -39.734375 C 58.9375 -37.640625 60.988281 -35.222656 62.3125 -32.484375 C 63.632812 -29.753906 64.296875 -26.492188 64.296875 -22.703125 Z M 64.296875 -22.703125 "/></g></g></g><g fill="#ffffff" fill-opacity="1"><g transform="translate(396.406752, 442.873884)"><g><path d="M 27.5625 -38.375 C 27.5625 -30.800781 28.804688 -25.078125 31.296875 -21.203125 C 33.785156 -17.328125 37.832031 -15.390625 43.4375 -15.390625 C 49 -15.390625 53 -17.316406 55.4375 -21.171875 C 57.882812 -25.023438 59.109375 -30.757812 59.109375 -38.375 C 59.109375 -45.945312 57.875 -51.625 55.40625 -55.40625 C 52.945312 -59.1875 48.910156 -61.078125 43.296875 -61.078125 C 37.734375 -61.078125 33.71875 -59.195312 31.25 -55.4375 C 28.789062 -51.675781 27.5625 -45.988281 27.5625 -38.375 Z M 80.4375 -38.375 C 80.4375 -25.925781 77.15625 -16.1875 70.59375 -9.15625 C 64.03125 -2.132812 54.882812 1.375 43.15625 1.375 C 35.820312 1.375 29.347656 -0.234375 23.734375 -3.453125 C 18.128906 -6.671875 13.820312 -11.289062 10.8125 -17.3125 C 7.800781 -23.332031 6.296875 -30.351562 6.296875 -38.375 C 6.296875 -50.875 9.554688 -60.585938 16.078125 -67.515625 C 22.597656 -74.441406 31.765625 -77.90625 43.578125 -77.90625 C 50.921875 -77.90625 57.394531 -76.3125 63 -73.125 C 68.613281 -69.9375 72.921875 -65.351562 75.921875 -59.375 C 78.929688 -53.40625 80.4375 -46.40625 80.4375 -38.375 Z M 80.4375 -38.375 "/></g></g></g><g fill="#ffffff" fill-opacity="1"><g transform="translate(483.139642, 442.873884)"><g><path d="M 53.625 -77.90625 C 56.457031 -77.90625 58.804688 -77.703125 60.671875 -77.296875 L 59.109375 -57.734375 C 57.421875 -58.191406 55.367188 -58.421875 52.953125 -58.421875 C 46.285156 -58.421875 41.09375 -56.707031 37.375 -53.28125 C 33.664062 -49.863281 31.8125 -45.078125 31.8125 -38.921875 L 31.8125 0 L 10.9375 0 L 10.9375 -76.484375 L 26.75 -76.484375 L 29.828125 -63.609375 L 30.84375 -63.609375 C 33.21875 -67.898438 36.421875 -71.351562 40.453125 -73.96875 C 44.492188 -76.59375 48.882812 -77.90625 53.625 -77.90625 Z M 53.625 -77.90625 "/></g></g></g><g fill="#ffffff" fill-opacity="1"><g transform="translate(546.752905, 442.873884)"><g/></g></g><g fill="#ffffff" fill-opacity="1"><g transform="translate(583.142414, 442.873884)"><g><path d="M 33.453125 0 L 12.59375 0 L 12.59375 -100.015625 L 69.90625 -100.015625 L 69.90625 -82.640625 L 33.453125 -82.640625 L 33.453125 -56.84375 L 67.375 -56.84375 L 67.375 -39.53125 L 33.453125 -39.53125 Z M 33.453125 0 "/></g></g></g><g fill="#ffffff" fill-opacity="1"><g transform="translate(660.025513, 442.873884)"><g><path d="M 12.59375 0 L 12.59375 -100.015625 L 33.796875 -100.015625 L 33.796875 -17.515625 L 74.359375 -17.515625 L 74.359375 0 Z M 12.59375 0 "/></g></g></g></svg>