<svg xmlns="http://www.w3.org/2000/svg" xmlns:xlink="http://www.w3.org/1999/xlink" width="1080" zoomAndPan="magnify" viewBox="0 0 810 809.999993" height="1080" preserveAspectRatio="xMidYMid meet" version="1.0"><defs><g/></defs><g fill="#ffffff" fill-opacity="1"><g transform="translate(0.0175815, 470.074597)"><g><path d="M 61.390625 0 L 35.953125 0 L 35.953125 -98.8125 L 3.359375 -98.8125 L 3.359375 -119.984375 L 93.96875 -119.984375 L 93.96875 -98.8125 L 61.390625 -98.8125 Z M 61.390625 0 "/></g></g></g><g fill="#ffffff" fill-opacity="1"><g transform="translate(97.354143, 470.074597)"><g><path d="M 97.828125 0 L 72.796875 0 L 72.796875 -53.59375 C 72.796875 -66.832031 67.867188 -73.453125 58.015625 -73.453125 C 51.015625 -73.453125 45.953125 -71.070312 42.828125 -66.3125 C 39.710938 -61.550781 38.15625 -53.835938 38.15625 -43.171875 L 38.15625 0 L 13.125 0 L 13.125 -127.703125 L 38.15625 -127.703125 L 38.15625 -101.6875 C 38.15625 -99.65625 37.96875 -94.894531 37.59375 -87.40625 L 37.015625 -80.015625 L 38.328125 -80.015625 C 43.910156 -88.992188 52.773438 -93.484375 64.921875 -93.484375 C 75.691406 -93.484375 83.867188 -90.582031 89.453125 -84.78125 C 95.035156 -78.976562 97.828125 -70.660156 97.828125 -59.828125 Z M 97.828125 0 "/></g></g></g><g fill="#ffffff" fill-opacity="1"><g transform="translate(207.822113, 470.074597)"><g><path d="M 12.0625 -115.46875 C 12.0625 -123.625 16.601562 -127.703125 25.6875 -127.703125 C 34.769531 -127.703125 39.3125 -123.625 39.3125 -115.46875 C 39.3125 -111.582031 38.175781 -108.554688 35.90625 -106.390625 C 33.632812 -104.234375 30.226562 -103.15625 25.6875 -103.15625 C 16.601562 -103.15625 12.0625 -107.257812 12.0625 -115.46875 Z M 38.15625 0 L 13.125 0 L 13.125 -91.75 L 38.15625 -91.75 Z M 38.15625 0 "/></g></g></g><g fill="#ffffff" fill-opacity="1"><g transform="translate(259.116682, 470.074597)"><g><path d="M 64.34375 -93.484375 C 67.738281 -93.484375 70.554688 -93.234375 72.796875 -92.734375 L 70.90625 -69.265625 C 68.882812 -69.816406 66.421875 -70.09375 63.515625 -70.09375 C 55.535156 -70.09375 49.3125 -68.039062 44.84375 -63.9375 C 40.382812 -59.832031 38.15625 -54.085938 38.15625 -46.703125 L 38.15625 0 L 13.125 0 L 13.125 -91.75 L 32.09375 -91.75 L 35.78125 -76.328125 L 37.015625 -76.328125 C 39.859375 -81.472656 43.703125 -85.617188 48.546875 -88.765625 C 53.390625 -91.910156 58.65625 -93.484375 64.34375 -93.484375 Z M 64.34375 -93.484375 "/></g></g></g><g fill="#ffffff" fill-opacity="1"><g transform="translate(335.442979, 470.074597)"><g><path d="M 42.1875 1.640625 C 31.40625 1.640625 22.9375 -2.539062 16.78125 -10.90625 C 10.625 -19.28125 7.546875 -30.882812 7.546875 -45.71875 C 7.546875 -60.757812 10.675781 -72.476562 16.9375 -80.875 C 23.207031 -89.28125 31.84375 -93.484375 42.84375 -93.484375 C 54.382812 -93.484375 63.191406 -88.992188 69.265625 -80.015625 L 70.09375 -80.015625 C 68.832031 -86.859375 68.203125 -92.957031 68.203125 -98.3125 L 68.203125 -127.703125 L 93.3125 -127.703125 L 93.3125 0 L 74.109375 0 L 69.265625 -11.90625 L 68.203125 -11.90625 C 62.515625 -2.875 53.84375 1.640625 42.1875 1.640625 Z M 50.96875 -18.296875 C 57.363281 -18.296875 62.050781 -20.15625 65.03125 -23.875 C 68.019531 -27.601562 69.648438 -33.925781 69.921875 -42.84375 L 69.921875 -45.546875 C 69.921875 -55.398438 68.398438 -62.457031 65.359375 -66.71875 C 62.328125 -70.988281 57.394531 -73.125 50.5625 -73.125 C 44.976562 -73.125 40.640625 -70.753906 37.546875 -66.015625 C 34.453125 -61.285156 32.90625 -54.410156 32.90625 -45.390625 C 32.90625 -36.359375 34.460938 -29.582031 37.578125 -25.0625 C 40.703125 -20.550781 45.164062 -18.296875 50.96875 -18.296875 Z M 50.96875 -18.296875 "/></g></g></g><g fill="#ffffff" fill-opacity="1"><g transform="translate(441.807384, 470.074597)"><g><path d="M 131.96875 0 L 103 0 L 86.75 -63.03125 C 86.144531 -65.269531 85.117188 -69.90625 83.671875 -76.9375 C 82.222656 -83.96875 81.390625 -88.6875 81.171875 -91.09375 C 80.835938 -88.144531 80.015625 -83.398438 78.703125 -76.859375 C 77.390625 -70.316406 76.378906 -65.648438 75.671875 -62.859375 L 59.5 0 L 30.609375 0 L 0 -119.984375 L 25.03125 -119.984375 L 40.375 -54.5 C 43.0625 -42.40625 45.003906 -31.925781 46.203125 -23.0625 C 46.535156 -26.175781 47.285156 -31.003906 48.453125 -37.546875 C 49.628906 -44.085938 50.738281 -49.160156 51.78125 -52.765625 L 69.265625 -119.984375 L 93.3125 -119.984375 L 110.796875 -52.765625 C 111.554688 -49.753906 112.507812 -45.15625 113.65625 -38.96875 C 114.8125 -32.789062 115.691406 -27.488281 116.296875 -23.0625 C 116.835938 -27.332031 117.707031 -32.648438 118.90625 -39.015625 C 120.113281 -45.390625 121.210938 -50.550781 122.203125 -54.5 L 137.46875 -119.984375 L 162.5 -119.984375 Z M 131.96875 0 "/></g></g></g><g fill="#ffffff" fill-opacity="1"><g transform="translate(604.308534, 470.074597)"><g><path d="M 51.125 -75.671875 C 45.820312 -75.671875 41.664062 -73.988281 38.65625 -70.625 C 35.644531 -67.257812 33.921875 -62.484375 33.484375 -56.296875 L 68.609375 -56.296875 C 68.503906 -62.484375 66.890625 -67.257812 63.765625 -70.625 C 60.648438 -73.988281 56.4375 -75.671875 51.125 -75.671875 Z M 54.65625 1.640625 C 39.882812 1.640625 28.335938 -2.429688 20.015625 -10.578125 C 11.703125 -18.734375 7.546875 -30.28125 7.546875 -45.21875 C 7.546875 -60.59375 11.390625 -72.476562 19.078125 -80.875 C 26.765625 -89.28125 37.394531 -93.484375 50.96875 -93.484375 C 63.9375 -93.484375 74.03125 -89.785156 81.25 -82.390625 C 88.46875 -75.003906 92.078125 -64.800781 92.078125 -51.78125 L 92.078125 -39.640625 L 32.90625 -39.640625 C 33.175781 -32.523438 35.28125 -26.96875 39.21875 -22.96875 C 43.164062 -18.976562 48.695312 -16.984375 55.8125 -16.984375 C 61.332031 -16.984375 66.554688 -17.554688 71.484375 -18.703125 C 76.410156 -19.859375 81.550781 -21.691406 86.90625 -24.203125 L 86.90625 -4.84375 C 82.53125 -2.65625 77.851562 -1.03125 72.875 0.03125 C 67.894531 1.101562 61.820312 1.640625 54.65625 1.640625 Z M 54.65625 1.640625 "/></g></g></g><g fill="#ffffff" fill-opacity="1"><g transform="translate(703.614818, 470.074597)"><g><path d="M 64.171875 -93.484375 C 75.003906 -93.484375 83.484375 -89.253906 89.609375 -80.796875 C 95.742188 -72.347656 98.8125 -60.765625 98.8125 -46.046875 C 98.8125 -30.890625 95.648438 -19.148438 89.328125 -10.828125 C 83.015625 -2.515625 74.410156 1.640625 63.515625 1.640625 C 52.742188 1.640625 44.289062 -2.269531 38.15625 -10.09375 L 36.4375 -10.09375 L 32.25 0 L 13.125 0 L 13.125 -127.703125 L 38.15625 -127.703125 L 38.15625 -97.984375 C 38.15625 -94.210938 37.828125 -88.171875 37.171875 -79.859375 L 38.15625 -79.859375 C 44.007812 -88.941406 52.679688 -93.484375 64.171875 -93.484375 Z M 56.140625 -73.453125 C 49.953125 -73.453125 45.4375 -71.550781 42.59375 -67.75 C 39.75 -63.945312 38.269531 -57.664062 38.15625 -48.90625 L 38.15625 -46.203125 C 38.15625 -36.359375 39.617188 -29.300781 42.546875 -25.03125 C 45.472656 -20.757812 50.113281 -18.625 56.46875 -18.625 C 61.601562 -18.625 65.6875 -20.988281 68.71875 -25.71875 C 71.757812 -30.457031 73.28125 -37.34375 73.28125 -46.375 C 73.28125 -55.394531 71.75 -62.160156 68.6875 -66.671875 C 65.625 -71.191406 61.441406 -73.453125 56.140625 -73.453125 Z M 56.140625 -73.453125 "/></g></g></g></svg>